# xmcd CD database file
#
# Track frame offsets:
#	150
#	21458
#	39861
#	60852
#	76438
#	91926
#	111482
#	130192
#	149996
#	168302
#
# Disc length: 2442 seconds
#
# Revision: 0
# Processed by: cddbd v1.5.2PL0 Copyright (c) Steve Scherf et al.
# Submitted via: CDex 1.51
#
DISCID=8509880a
DTITLE=Sir Charles Jones - My Story
DYEAR=2008
DGENRE=Blues
TTITLE0=Happy Anniversary
TTITLE1=Pop That Coochie
TTITLE2=You're My Latest, My Greatest
TTITLE3=I Came To Party
TTITLE4=My Story
TTITLE5=I Wanna Make Love
TTITLE6=You Mean The World To Me
TTITLE7=I Tried
TTITLE8=My Taboo
TTITLE9=You Are The Sunshine
EXTD=YEAR: 2008
EXTT0=
EXTT1=
EXTT2=
EXTT3=
EXTT4=
EXTT5=
EXTT6=
EXTT7=
EXTT8=
EXTT9=
PLAYORDER=
